<svg width="24" height="24" viewBox="0 0 24 24" fill="none" xmlns="http://www.w3.org/2000/svg">
<path d="M7.5 2C7.85357 2 8.14286 2.27984 8.14286 2.625V4.5H15.8571V2.625C15.8571 2.27984 16.1464 2 16.5 2C16.8536 2 17.1429 2.27984 17.1429 2.625V4.5H18.4286C19.8469 4.5 21 5.61914 21 7V19.5C21 20.8789 19.8469 22 18.4286 22H5.57143C4.15112 22 3 20.8789 3 19.5V7C3 5.61914 4.15112 4.5 5.57143 4.5H6.85714V2.625C6.85714 2.27984 7.14643 2 7.5 2ZM19.7143 9.5H4.28571V19.5C4.28571 20.1914 4.86147 20.75 5.57143 20.75H18.4286C19.1397 20.75 19.7143 20.1914 19.7143 19.5V9.5ZM18.4286 5.75H5.57143C4.86147 5.75 4.28571 6.30859 4.28571 7V8.25H19.7143V7C19.7143 6.30859 19.1397 5.75 18.4286 5.75Z" fill="#9496AC"/>
</svg>
