<svg width="24" height="24" viewBox="0 0 24 24" fill="none" xmlns="http://www.w3.org/2000/svg">
<path d="M11.1914 14.9414C10.9492 15.1875 10.5508 15.1875 10.3086 14.9414L7.80859 12.4414C7.5625 12.1992 7.5625 11.8008 7.80859 11.5586C8.05078 11.3125 8.44922 11.3125 8.69141 11.5586L10.75 13.6172L15.3086 9.05859C15.5508 8.8125 15.9492 8.8125 16.1914 9.05859C16.4375 9.30078 16.4375 9.69922 16.1914 9.94141L11.1914 14.9414ZM22 12C22 17.5234 17.5234 22 12 22C6.47656 22 2 17.5234 2 12C2 6.47656 6.47656 2 12 2C17.5234 2 22 6.47656 22 12ZM12 3.25C7.16797 3.25 3.25 7.16797 3.25 12C3.25 16.832 7.16797 20.75 12 20.75C16.832 20.75 20.75 16.832 20.75 12C20.75 7.16797 16.832 3.25 12 3.25Z" fill="#28B469"/>
</svg>
