<svg width="16" height="16" viewBox="0 0 16 16" fill="none" xmlns="http://www.w3.org/2000/svg">
<path d="M7.64687 11.7312C7.74375 11.8143 7.87187 11.8571 8 11.8571C8.12812 11.8571 8.25625 11.8143 8.35312 11.7312L12.8531 7.87411C13.0484 7.7067 13.0484 7.43536 12.8531 7.26821C12.6578 7.10107 12.3413 7.1008 12.1463 7.26821L8.5 10.3946L8.5 2.42857C8.5 2.19168 8.27638 2 8 2C7.72363 2 7.5 2.19168 7.5 2.42857L7.5 10.3946L3.85312 7.26875C3.65781 7.10134 3.34125 7.10134 3.14625 7.26875C2.95125 7.43616 2.95094 7.7075 3.14625 7.87464L7.64687 11.7312ZM2.5 14L13.5 14C13.7764 14 14 13.8082 14 13.5714C14 13.3346 13.7764 13.1429 13.5 13.1429L2.5 13.1429C2.225 13.1429 2 13.3346 2 13.5714C2 13.8082 2.225 14 2.5 14Z" fill="#25282B"/>
</svg>
