<svg width="32" height="32" viewBox="0 0 32 32" fill="none" xmlns="http://www.w3.org/2000/svg">
  <path opacity="0.4" d="M27.332 13.588H23.4787C20.3187 13.588 17.7454 11.0146 17.7454 7.85464V4.0013C17.7454 3.26797 17.1454 2.66797 16.412 2.66797H10.7587C6.65203 2.66797 3.33203 5.33464 3.33203 10.0946V21.908C3.33203 26.668 6.65203 29.3346 10.7587 29.3346H21.2387C25.3454 29.3346 28.6654 26.668 28.6654 21.908V14.9213C28.6654 14.188 28.0654 13.588 27.332 13.588Z" fill="#9B9B9B" />
  <path d="M21.0676 2.94731C20.5209 2.40064 19.5742 2.77398 19.5742 3.53398V8.18731C19.5742 10.134 21.2276 11.7473 23.2409 11.7473C24.5076 11.7606 26.2676 11.7606 27.7742 11.7606C28.5342 11.7606 28.9342 10.8673 28.4009 10.334C26.4809 8.40064 23.0409 4.92064 21.0676 2.94731Z" fill="#9B9B9B" />
  <path d="M18 18.332H10C9.45333 18.332 9 17.8787 9 17.332C9 16.7854 9.45333 16.332 10 16.332H18C18.5467 16.332 19 16.7854 19 17.332C19 17.8787 18.5467 18.332 18 18.332Z" fill="#9B9B9B" />
  <path d="M15.3333 23.668H10C9.45333 23.668 9 23.2146 9 22.668C9 22.1213 9.45333 21.668 10 21.668H15.3333C15.88 21.668 16.3333 22.1213 16.3333 22.668C16.3333 23.2146 15.88 23.668 15.3333 23.668Z" fill="#9B9B9B" />
</svg>