<svg width="17" height="16" viewBox="0 0 17 16" fill="none" xmlns="http://www.w3.org/2000/svg">
<path d="M6.625 4.64138H11.5891L10.1348 5.85145C9.97584 5.98378 9.95423 6.21995 10.0868 6.37858C10.1617 6.46631 10.2672 6.51311 10.375 6.51311C10.4596 6.51311 10.5445 6.48459 10.6148 6.4261L12.8648 4.55437C12.9508 4.48463 13 4.377 13 4.24598C13 4.11496 12.9506 4.02961 12.8652 3.95867L10.6152 2.08695C10.4559 1.95387 10.2194 1.97654 10.0867 2.13447C9.95416 2.29312 9.97577 2.5294 10.1347 2.66159L11.5891 3.8927H6.625C4.35039 3.8927 2.5 5.71996 2.5 7.98943C2.5 8.21638 2.66772 8.38483 2.875 8.38483C3.08228 8.38483 3.25023 8.21638 3.25023 8.01049C3.25023 6.1528 4.76383 4.64138 6.625 4.64138ZM14.125 7.63614C13.9177 7.63614 13.7498 7.80357 13.7498 8.01049C13.7498 9.8684 12.2359 11.3796 10.3959 11.3796H5.41094L6.86523 10.1695C7.02416 10.0372 7.04577 9.80102 6.91321 9.64239C6.78203 9.48447 6.54531 9.46341 6.38594 9.59443L4.13594 11.4662C4.04945 11.5387 4 11.6416 4 11.7329C4 11.8241 4.04943 11.9493 4.13477 12.0202L6.38477 13.8919C6.45625 13.9719 6.54063 14 6.60391 14C6.71158 14 6.81815 13.9539 6.89242 13.8655C7.02498 13.7068 7.00338 13.4705 6.84445 13.3383L5.41094 12.1283H10.375C12.6496 12.1283 14.5 10.2807 14.5 8.01049C14.5 7.8046 14.3313 7.63614 14.125 7.63614Z" fill="#25282B"/>
</svg>
