<svg width="16" height="16" viewBox="0 0 16 16" fill="none" xmlns="http://www.w3.org/2000/svg">
<path d="M6.375 11.375C6.375 11.5813 6.20625 11.75 6 11.75C5.79375 11.75 5.625 11.5813 5.625 11.375V6.125C5.625 5.91875 5.79375 5.75 6 5.75C6.20625 5.75 6.375 5.91875 6.375 6.125V11.375ZM8.625 11.375C8.625 11.5813 8.45625 11.75 8.25 11.75C8.04375 11.75 7.875 11.5813 7.875 11.375V6.125C7.875 5.91875 8.04375 5.75 8.25 5.75C8.45625 5.75 8.625 5.91875 8.625 6.125V11.375ZM10.875 11.375C10.875 11.5813 10.7063 11.75 10.5 11.75C10.2937 11.75 10.125 11.5813 10.125 11.375V6.125C10.125 5.91875 10.2937 5.75 10.5 5.75C10.7063 5.75 10.875 5.91875 10.875 6.125V11.375ZM10.268 2.52875L10.8961 3.5H13.125C13.3313 3.5 13.5 3.66781 13.5 3.875C13.5 4.08219 13.3313 4.25 13.125 4.25H12.75V12.125C12.75 13.1609 11.9109 14 10.875 14H5.625C4.58953 14 3.75 13.1609 3.75 12.125V4.25H3.375C3.16791 4.25 3 4.08219 3 3.875C3 3.66781 3.16791 3.5 3.375 3.5H5.60391L6.21094 2.52875C6.41719 2.19983 6.77812 2 7.16484 2H9.33516C9.72187 2 10.0828 2.19983 10.268 2.52875ZM6.48984 3.5H10.0102L9.65156 2.92625C9.58359 2.81656 9.46406 2.75 9.33516 2.75H7.16484C7.03594 2.75 6.91641 2.81656 6.84844 2.92625L6.48984 3.5ZM4.5 12.125C4.5 12.7461 5.00367 13.25 5.625 13.25H10.875C11.4961 13.25 12 12.7461 12 12.125V4.25H4.5V12.125Z" fill="#25282B"/>
</svg>
