<svg width="16" height="16" viewBox="0 0 16 16" fill="none" xmlns="http://www.w3.org/2000/svg">
<path d="M8.35313 4.26875C8.25625 4.18571 8.12813 4.14286 8 4.14286C7.87187 4.14286 7.74375 4.18571 7.64687 4.26875L3.14688 8.12589C2.95156 8.2933 2.95156 8.56464 3.14688 8.73179C3.34219 8.89893 3.65875 8.8992 3.85375 8.73179L7.5 5.60536V13.5714C7.5 13.8083 7.72363 14 8 14C8.27637 14 8.5 13.8083 8.5 13.5714V5.60536L12.1469 8.73125C12.3422 8.89866 12.6588 8.89866 12.8538 8.73125C13.0487 8.56384 13.0491 8.2925 12.8538 8.12536L8.35313 4.26875ZM13.5 2H2.5C2.22363 2 2 2.19179 2 2.42857C2 2.66536 2.22363 2.85714 2.5 2.85714H13.5C13.775 2.85714 14 2.66536 14 2.42857C14 2.19179 13.775 2 13.5 2Z" fill="currentColor"/>
</svg>
